<svg width="20" height="18" viewBox="0 0 620 581" fill="none" xmlns="http://www.w3.org/2000/svg">
<path d="M310.001 30C310.392 30.0001 310.606 30.1133 310.639 30.1338C310.643 30.1369 310.656 30.1435 310.691 30.1855C310.714 30.2129 310.804 30.3225 310.925 30.5645L311.055 30.8525L373.946 183.923L373.949 183.929C382.677 205.157 402.524 219.902 425.581 221.773L588.827 235.021C589.029 235.038 589.16 235.064 589.232 235.081C589.304 235.098 589.339 235.112 589.348 235.115C589.351 235.117 589.348 235.113 589.363 235.126C589.421 235.175 589.683 235.442 589.864 236.007C590.046 236.572 590.008 237.009 589.96 237.198C589.941 237.275 589.917 237.33 589.88 237.392C589.847 237.445 589.729 237.629 589.401 237.913L465.025 345.763L465.022 345.765C447.651 360.832 440.175 384.326 445.428 406.617V406.618L483.428 567.877C483.541 568.358 483.532 568.624 483.525 568.719C483.518 568.822 483.499 568.891 483.474 568.957C483.41 569.118 483.224 569.424 482.845 569.703C482.564 569.909 482.352 569.973 482.271 569.992C482.252 569.986 482.224 569.979 482.189 569.964C482.116 569.933 481.985 569.871 481.799 569.756L342.038 483.34H342.039C322.694 471.378 298.388 471.191 278.888 482.779L277.963 483.34L138.201 569.756C138.015 569.871 137.885 569.933 137.812 569.964C137.776 569.979 137.748 569.987 137.729 569.993C137.647 569.974 137.435 569.909 137.155 569.703C136.777 569.424 136.591 569.118 136.527 568.957C136.502 568.891 136.483 568.821 136.476 568.719C136.469 568.624 136.46 568.358 136.573 567.877L174.572 406.619C179.825 384.331 172.355 360.835 154.979 345.765L154.977 345.762L30.5977 237.912C30.271 237.629 30.1527 237.445 30.1201 237.392C30.0825 237.33 30.0583 237.275 30.0391 237.198C29.9914 237.009 29.9545 236.571 30.1357 236.007C30.3172 235.442 30.5801 235.174 30.6377 235.126C30.6525 235.114 30.6487 235.117 30.6523 235.115C30.6608 235.112 30.6962 235.098 30.7676 235.081C30.8396 235.064 30.9709 235.038 31.1729 235.021L194.421 221.773C217.478 219.902 237.329 205.157 246.054 183.923L308.947 30.8525C309.131 30.4063 309.279 30.2226 309.31 30.1855C309.345 30.1435 309.357 30.1369 309.362 30.1338C309.393 30.1139 309.608 30 310.001 30Z" stroke="black" stroke-width="60" stroke-miterlimit="1"/>
</svg>
