<svg width="112" height="48" viewBox="0 0 112 48" fill="none" xmlns="http://www.w3.org/2000/svg">
<path d="M19.7078 28.4461C19.663 28.3584 19.629 28.2908 19.594 28.2238C19.1634 27.3974 18.1259 26.8607 17.2046 26.9876C16.4135 27.0966 15.7544 27.7543 15.5228 28.6829C15.2732 29.6842 15.4534 30.6495 15.8136 31.5881C16.4011 33.1186 17.3314 34.4276 18.4773 35.586C19.2699 36.3871 19.9019 36.3736 20.682 35.5586C21.765 34.4269 22.6438 33.1564 23.2536 31.7082C23.613 30.8551 23.8776 29.9763 23.9177 29.0432C23.9468 28.3694 23.8599 27.7204 23.4764 27.142C22.9893 26.4076 22.1881 26.1912 21.4 26.579C20.91 26.82 20.5228 27.18 20.217 27.6265C20.0417 27.8825 19.8886 28.1535 19.7078 28.4461ZM34.9602 32.7484C34.9422 34.0104 34.6578 35.2127 34.0767 36.3297C33.0906 38.225 31.664 39.694 29.7541 40.6787C27.8715 41.6494 25.9421 41.7604 23.9707 40.9877C23.1705 40.6739 22.3726 40.3499 21.5924 39.9903C20.1747 39.3367 18.763 39.3429 17.3132 39.8858C16.295 40.2672 15.2616 40.6149 14.2175 40.9169C13.1361 41.2298 12.023 41.3441 10.8947 41.2154C9.91937 41.1041 9.09538 40.6721 8.38146 40.0183C7.47092 39.1846 6.74231 38.2111 6.28257 37.063C5.69333 35.5917 5.8349 34.1723 6.69278 32.8317C7.36437 31.782 8.27115 30.9446 9.14959 30.0782C9.78816 29.4485 10.4133 28.8018 11.0015 28.1254C11.6801 27.3446 12.0854 26.4025 12.4213 25.4345C12.7331 24.5364 13.0163 23.6285 13.324 22.729C13.5463 22.0791 13.9543 21.5385 14.3574 20.9906C15.3279 19.6717 16.7122 19.0946 18.2407 18.7549C20.0526 18.3522 21.6316 18.8715 22.979 20.0633C23.8081 20.7964 24.5257 21.6553 25.2974 22.4539C26.6118 23.8141 28.0061 25.0845 29.5681 26.1575C30.3457 26.6917 31.1618 27.1704 31.9329 27.7131C33.0362 28.4898 33.9671 29.4321 34.5351 30.683C34.8327 31.3383 34.9502 32.0327 34.9602 32.7484Z" fill="#332C22"/>
<path d="M17.1701 14.0365C17.1731 15.0467 16.9941 16.1375 16.5154 17.1624C16.0031 18.2585 15.2619 19.1256 14.0431 19.4629C13.0402 19.7407 12.1143 19.517 11.2511 18.9778C10.1156 18.2687 9.34766 17.2396 8.77655 16.056C7.94722 14.3372 7.62759 12.5188 7.79758 10.6185C7.89798 9.49592 8.21542 8.44666 8.84259 7.49227C9.9242 5.84641 11.8682 5.38121 13.5587 6.38276C14.6554 7.0326 15.4237 7.98127 16.0078 9.08937C16.8039 10.5995 17.1831 12.2146 17.1701 14.0365Z" fill="#332C22"/>
<path d="M28.9745 11.0268C28.9762 13.0851 28.5963 14.8121 27.66 16.3922C27.1366 17.2758 26.4671 18.0279 25.5413 18.5116C24.1882 19.2187 22.6986 18.9597 21.6363 17.8539C20.7954 16.9786 20.3392 15.9131 20.0947 14.747C19.6725 12.7311 19.8904 10.7618 20.6043 8.84642C20.9498 7.9194 21.4546 7.07104 22.1801 6.38667C22.8485 5.75605 23.6102 5.26209 24.5593 5.18327C25.7667 5.08298 26.7147 5.59471 27.4727 6.49914C28.2538 7.43138 28.6439 8.53691 28.8375 9.71697C28.921 10.2258 28.9461 10.7442 28.9745 11.0268Z" fill="#332C22"/>
<path d="M0.666504 20.9489C0.68321 20.0296 0.858655 19.1654 1.40522 18.4157C2.11934 17.4357 3.11918 17.0743 4.30045 17.1483C5.4957 17.2232 6.51317 17.7396 7.42668 18.4679C9.05384 19.7654 10.13 21.4218 10.5581 23.4713C10.7476 24.3779 10.7617 25.2931 10.4445 26.1762C9.89925 27.6946 8.65534 28.4788 7.03416 28.3532C6.02555 28.2751 5.13777 27.8718 4.32318 27.2977C2.56729 26.06 1.4368 24.3776 0.864378 22.3211C0.741478 21.8796 0.72955 21.4071 0.666504 20.9489Z" fill="#332C22"/>
<path d="M37.6094 18.0813C37.3374 20.9366 36.1758 23.1437 33.9231 24.7334C33.2975 25.1749 32.5939 25.4304 31.8255 25.5083C30.5261 25.6401 29.3445 24.9085 28.8559 23.6567C28.4266 22.5562 28.4516 21.4301 28.7217 20.3097C29.2414 18.153 30.4007 16.4109 32.2226 15.1337C33.029 14.5683 33.944 14.3375 34.9279 14.4196C36.0716 14.515 37.0385 15.3732 37.3728 16.6352C37.508 17.1455 37.5465 17.6811 37.6094 18.0813Z" fill="#332C22"/>
<path d="M91.1653 27.5516H93.7938L90.3283 31.7447L94.0989 36.2976H91.3922L87.8171 31.862V36.2976H85.4312V27.5516H87.8171V31.7994L91.1653 27.5516Z" fill="#332C22"/>
<path d="M83.7813 31.909C83.7813 32.6391 83.6822 33.2858 83.484 33.8491C83.291 34.4123 83.0068 34.8895 82.6313 35.2807C82.261 35.6666 81.8125 35.9586 81.2858 36.1568C80.7642 36.355 80.1749 36.4541 79.5178 36.4541C78.9024 36.4541 78.3365 36.355 77.8202 36.1568C77.3091 35.9586 76.8632 35.6666 76.4825 35.2807C76.107 34.8895 75.815 34.4123 75.6064 33.8491C75.403 33.2858 75.3013 32.6391 75.3013 31.909C75.3013 30.9389 75.4734 30.1175 75.8176 29.4448C76.1618 28.772 76.652 28.2609 77.2883 27.9115C77.9245 27.5621 78.6834 27.3874 79.5647 27.3874C80.3835 27.3874 81.1085 27.5621 81.7395 27.9115C82.3758 28.2609 82.8738 28.772 83.2337 29.4448C83.5987 30.1175 83.7813 30.9389 83.7813 31.909ZM77.7342 31.909C77.7342 32.4827 77.7968 32.9651 77.9219 33.3562C78.0471 33.7474 78.2427 34.042 78.5087 34.2402C78.7746 34.4384 79.1214 34.5375 79.5491 34.5375C79.9715 34.5375 80.3131 34.4384 80.5739 34.2402C80.8399 34.042 81.0328 33.7474 81.1528 33.3562C81.278 32.9651 81.3405 32.4827 81.3405 31.909C81.3405 31.3301 81.278 30.8503 81.1528 30.4696C81.0328 30.0836 80.8399 29.7942 80.5739 29.6012C80.3079 29.4083 79.9611 29.3118 79.5334 29.3118C78.9024 29.3118 78.4435 29.5282 78.1566 29.9611C77.875 30.394 77.7342 31.0433 77.7342 31.909Z" fill="#332C22"/>
<path d="M73.6497 27.5516V36.2976H71.2559V29.3431H68.0876V36.2976H65.7017V27.5516H73.6497Z" fill="#332C22"/>
<path d="M59.9196 27.3717C61.093 27.3717 61.9927 27.6272 62.6185 28.1383C63.2443 28.6494 63.5572 29.4265 63.5572 30.4696V36.2976H61.891L61.4294 35.1085H61.3668C61.1165 35.4214 60.8609 35.677 60.6002 35.8752C60.3394 36.0734 60.0395 36.2194 59.7005 36.3133C59.3616 36.4071 58.9495 36.4541 58.4645 36.4541C57.9482 36.4541 57.4841 36.355 57.0721 36.1568C56.6653 35.9586 56.3445 35.6561 56.1098 35.2493C55.8752 34.8373 55.7578 34.3158 55.7578 33.6848C55.7578 32.7564 56.0838 32.0733 56.7357 31.6352C57.3876 31.1919 58.3654 30.9468 59.6693 30.8998L61.1869 30.8529V30.4696C61.1869 30.0106 61.0669 29.6742 60.827 29.4604C60.5871 29.2466 60.2534 29.1397 59.8257 29.1397C59.4033 29.1397 58.9887 29.1996 58.5819 29.3196C58.1751 29.4395 57.7683 29.5908 57.3615 29.7733L56.5714 28.1618C57.0356 27.9167 57.5545 27.7237 58.1281 27.5829C58.707 27.4421 59.3042 27.3717 59.9196 27.3717ZM61.1869 32.2454L60.2638 32.2766C59.4919 32.2975 58.9548 32.4357 58.6523 32.6913C58.355 32.9468 58.2064 33.2832 58.2064 33.7004C58.2064 34.0655 58.3133 34.3262 58.5271 34.4827C58.7409 34.6339 59.02 34.7096 59.3642 34.7096C59.8753 34.7096 60.3055 34.5583 60.6549 34.2558C61.0096 33.9534 61.1869 33.5231 61.1869 32.9651V32.2454Z" fill="#332C22"/>
<path d="M53.9586 36.2977H51.5413V26.8789H48.7407C48.6781 27.3691 48.6103 27.9037 48.5373 28.4826C48.4643 29.0615 48.3887 29.6456 48.3105 30.2349C48.2322 30.8242 48.1488 31.3849 48.0601 31.9168C47.9767 32.4488 47.8932 32.9156 47.8098 33.3171C47.6742 33.9847 47.4891 34.5532 47.2544 35.0225C47.0249 35.4867 46.7094 35.8413 46.3078 36.0864C45.9114 36.3316 45.3925 36.4541 44.751 36.4541C44.5372 36.4541 44.3312 36.4385 44.133 36.4072C43.9401 36.3759 43.7601 36.3342 43.5933 36.282V34.295C43.7289 34.3419 43.8645 34.381 44.0001 34.4123C44.1356 34.4384 44.2843 34.4515 44.446 34.4515C44.6546 34.4515 44.8267 34.3837 44.9623 34.2481C45.1031 34.1072 45.2282 33.87 45.3378 33.5362C45.4473 33.1972 45.5568 32.7304 45.6663 32.1359C45.7133 31.8751 45.7758 31.5074 45.8541 31.0329C45.9323 30.553 46.021 29.9924 46.1201 29.3509C46.2191 28.7042 46.3208 28.0002 46.4251 27.2388C46.5347 26.4773 46.639 25.6846 46.7381 24.8606H53.9586V36.2977Z" fill="#332C22"/>
<path d="M107.696 12.7243C108.869 12.7243 109.769 12.9799 110.395 13.491C111.021 14.0021 111.334 14.7791 111.334 15.8222V21.6502H109.667L109.206 20.4612H109.143C108.893 20.7741 108.637 21.0296 108.377 21.2278C108.116 21.426 107.816 21.572 107.477 21.6659C107.138 21.7598 106.726 21.8067 106.241 21.8067C105.725 21.8067 105.26 21.7076 104.848 21.5094C104.442 21.3112 104.121 21.0088 103.886 20.602C103.652 20.19 103.534 19.6684 103.534 19.0374C103.534 18.1091 103.86 17.4259 104.512 16.9878C105.164 16.5445 106.142 16.2994 107.446 16.2524L108.963 16.2055V15.8222C108.963 15.3632 108.843 15.0269 108.603 14.813C108.364 14.5992 108.03 14.4923 107.602 14.4923C107.18 14.4923 106.765 14.5523 106.358 14.6722C105.951 14.7922 105.545 14.9434 105.138 15.1259L104.348 13.5144C104.812 13.2693 105.331 13.0763 105.905 12.9355C106.483 12.7947 107.081 12.7243 107.696 12.7243ZM108.963 17.598L108.04 17.6293C107.268 17.6501 106.731 17.7883 106.429 18.0439C106.131 18.2994 105.983 18.6358 105.983 19.053C105.983 19.4181 106.09 19.6789 106.303 19.8353C106.517 19.9866 106.796 20.0622 107.141 20.0622C107.652 20.0622 108.082 19.9109 108.431 19.6085C108.786 19.306 108.963 18.8757 108.963 18.3177V17.598Z" fill="#332C22"/>
<path d="M100.248 12.9042H102.876L99.4108 17.0973L103.181 21.6502H100.475L96.8997 17.2146V21.6502H94.5137V12.9042H96.8997V17.1521L100.248 12.9042Z" fill="#332C22"/>
<path d="M86.613 12.9042V16.2681H89.9456V12.9042H92.3316V21.6502H89.9456V18.0439H86.613V21.6502H84.2271V12.9042H86.613Z" fill="#332C22"/>
<path d="M75.3082 12.9042V16.362C75.3082 16.5393 75.3004 16.7635 75.2848 17.0347C75.2743 17.3007 75.2587 17.5719 75.2378 17.8483C75.217 18.1247 75.1961 18.3724 75.1752 18.5915C75.1544 18.8105 75.1387 18.9592 75.1283 19.0374L79.1649 12.9042H82.0359V21.6502H79.7282V18.1612C79.7282 17.8744 79.7386 17.5589 79.7595 17.2146C79.7803 16.8652 79.8038 16.5367 79.8299 16.229C79.8559 15.9213 79.8742 15.6892 79.8846 15.5327L75.8637 21.6502H73.0005V12.9042H75.3082Z" fill="#332C22"/>
<path d="M71.6866 14.6957H68.8234V21.6502H66.4374V14.6957H63.5664V12.9042H71.6866V14.6957Z" fill="#332C22"/>
<path d="M58.6691 12.7243C59.8425 12.7243 60.7422 12.9799 61.368 13.491C61.9938 14.0021 62.3067 14.7791 62.3067 15.8222V21.6502H60.6405L60.1789 20.4612H60.1163C59.866 20.7741 59.6105 21.0296 59.3497 21.2278C59.0889 21.426 58.789 21.572 58.4501 21.6659C58.1111 21.7598 57.6991 21.8067 57.214 21.8067C56.6977 21.8067 56.2336 21.7076 55.8216 21.5094C55.4148 21.3112 55.094 21.0088 54.8594 20.602C54.6247 20.19 54.5073 19.6684 54.5073 19.0374C54.5073 18.1091 54.8333 17.4259 55.4852 16.9878C56.1371 16.5445 57.115 16.2994 58.4188 16.2524L59.9364 16.2055V15.8222C59.9364 15.3632 59.8165 15.0269 59.5766 14.813C59.3367 14.5992 59.0029 14.4923 58.5752 14.4923C58.1528 14.4923 57.7382 14.5523 57.3314 14.6722C56.9246 14.7922 56.5178 14.9434 56.111 15.1259L55.3209 13.5144C55.7851 13.2693 56.304 13.0763 56.8777 12.9355C57.4566 12.7947 58.0537 12.7243 58.6691 12.7243ZM59.9364 17.598L59.0133 17.6293C58.2414 17.6501 57.7043 17.7883 57.4018 18.0439C57.1045 18.2994 56.9559 18.6358 56.9559 19.053C56.9559 19.4181 57.0628 19.6789 57.2766 19.8353C57.4905 19.9866 57.7695 20.0622 58.1137 20.0622C58.6248 20.0622 59.055 19.9109 59.4044 19.6085C59.7591 19.306 59.9364 18.8757 59.9364 18.3177V17.598Z" fill="#332C22"/>
<path d="M54.1548 21.6503H51.3855L48.7257 17.3242L46.0659 21.6503H43.4688L47.2629 15.7518L43.7113 10.2132H46.3867L48.8509 14.328L51.2682 10.2132H53.881L50.2903 15.8848L54.1548 21.6503Z" fill="#332C22"/>
</svg>
