<svg aria-hidden="true" style="position:absolute;width:0;height:0;overflow:hidden" xmlns="http://www.w3.org/2000/svg">
  <defs>
    <symbol id="icon-add" width="24" height="24" viewBox="0 0 32 32">
        <path d="M14.864 17.136h-7.261c-0.321 0-0.59-0.11-0.808-0.329s-0.327-0.49-0.327-0.812c0-0.322 0.109-0.591 0.327-0.806s0.488-0.323 0.808-0.323h7.261v-7.261c0-0.32 0.11-0.591 0.329-0.812s0.49-0.332 0.812-0.332c0.322 0 0.591 0.111 0.806 0.332s0.323 0.492 0.323 0.812v7.261h7.261c0.32 0 0.591 0.11 0.812 0.329s0.332 0.49 0.332 0.812c0 0.322-0.111 0.591-0.332 0.806s-0.492 0.323-0.812 0.323h-7.261v7.261c0 0.321-0.11 0.59-0.329 0.808s-0.49 0.327-0.812 0.327c-0.322 0-0.591-0.109-0.806-0.327s-0.323-0.488-0.323-0.808v-7.261z"></path>
    </symbol>
    <symbol id="icon-arrow-back" width="34" height="34" viewBox="0 0 32 32">
        <path d="M12.0078 4.68652C12.0934 4.68658 12.1668 4.71285 12.249 4.79492C12.3313 4.88086 12.3574 4.95797 12.3574 5.04395C12.3573 5.13078 12.3308 5.20478 12.249 5.28711L5.8877 11.6484H19.2979C19.4194 11.6485 19.4945 11.6838 19.5586 11.7471C19.6207 11.8084 19.6553 11.8801 19.6553 12C19.6553 12.1199 19.6207 12.1916 19.5586 12.2529C19.4945 12.3162 19.4194 12.3515 19.2979 12.3516H5.8877L12.2432 18.707V18.7061C12.3254 18.7885 12.3537 18.8653 12.3545 18.957V18.958C12.355 19.0245 12.3404 19.0829 12.2988 19.1426L12.2471 19.2041C12.1671 19.2851 12.0939 19.3113 12.0049 19.3105C11.9104 19.3096 11.8321 19.2796 11.749 19.1973L4.80078 12.249C4.74762 12.1949 4.72192 12.1527 4.70996 12.124V12.123C4.69485 12.0867 4.68652 12.0466 4.68652 11.999C4.68655 11.9514 4.69516 11.9123 4.70996 11.877V11.876C4.72183 11.8475 4.74729 11.8051 4.80078 11.751L11.751 4.80078C11.8414 4.71356 11.9211 4.68652 12.0078 4.68652Z" fill="#02060A" stroke="#02060A" ></path>
    </symbol>
    <symbol id="icon-arrow-forward" width="34" height="34" viewBox="0 0 32 32">
        <path d="M11.9951 4.68945C12.0661 4.69012 12.1279 4.70677 12.1895 4.75L12.251 4.80273L19.1992 11.751C19.2524 11.8051 19.2781 11.8473 19.29 11.876V11.877C19.3052 11.9133 19.3135 11.9534 19.3135 12.001C19.3134 12.0486 19.3048 12.0877 19.29 12.123V12.124C19.2782 12.1525 19.2527 12.1948 19.1992 12.249L12.2451 19.1973C12.1538 19.2875 12.0752 19.3135 11.9922 19.3135C11.9115 19.3134 11.8393 19.2889 11.7559 19.2031L11.751 19.1982L11.6992 19.1377C11.6571 19.0781 11.6426 19.02 11.6426 18.9551C11.6426 18.8904 11.6573 18.8328 11.6992 18.7734L11.751 18.7129L18.1123 12.3516H4.70215C4.58005 12.3515 4.50781 12.3164 4.44727 12.2559H4.44629C4.38542 12.195 4.35059 12.122 4.35059 12C4.35059 11.878 4.38542 11.805 4.44629 11.7441H4.44727C4.50782 11.6836 4.58005 11.6485 4.70215 11.6484H18.1123L11.7568 5.29297C11.6955 5.23162 11.6637 5.17322 11.6514 5.1084L11.6455 5.04102C11.6446 4.95107 11.6708 4.87748 11.751 4.79688L11.752 4.7959C11.8321 4.71531 11.9055 4.68868 11.9951 4.68945Z" fill="#02060A" stroke="#02060A" ></path>
    </symbol>
    <symbol id="icon-close" width="32" height="32" viewBox="0 0 32 32">
        <path d="M17.5996 5.92499C17.7639 5.92499 17.8659 5.97349 17.9463 6.05389C18.0265 6.1342 18.0751 6.23569 18.0752 6.3996C18.0752 6.5638 18.0266 6.66589 17.9463 6.74628L12.6924 12.0002L13.0459 12.3537L17.9463 17.2531C18.0267 17.3335 18.0752 17.4356 18.0752 17.5998C18.0752 17.7641 18.0267 17.8661 17.9463 17.9465C17.8659 18.0269 17.7639 18.0754 17.5996 18.0754C17.4355 18.0753 17.3333 18.0268 17.2529 17.9465L12.3535 13.0461L12 12.6926L6.74609 17.9465C6.66571 18.0268 6.56362 18.0754 6.39941 18.0754C6.23551 18.0753 6.13402 18.0267 6.05371 17.9465C5.97331 17.8661 5.9248 17.7641 5.9248 17.5998C5.92484 17.4356 5.97334 17.3335 6.05371 17.2531L11.3066 12.0002L10.9531 11.6467L6.05371 6.74628C5.97331 6.66587 5.9248 6.56387 5.9248 6.3996C5.92488 6.23556 5.97337 6.13423 6.05371 6.05389C6.13405 5.97356 6.23537 5.92506 6.39941 5.92499C6.56368 5.92499 6.66569 5.97349 6.74609 6.05389L11.6465 10.9533L12 11.3068L17.2529 6.05389C17.3333 5.97352 17.4355 5.92503 17.5996 5.92499Z" fill="#02060A" stroke="#02060A" ></path>
    </symbol>
    <symbol id="icon-facebook" viewBox="0 0 32 32">
        <path d="M29.333 16.405c0-7.409-5.969-13.415-13.333-13.415s-13.333 6.006-13.333 13.415c0 6.696 4.876 12.245 11.25 13.252v-9.374h-3.385v-3.878h3.385v-2.955c0-3.362 1.991-5.219 5.036-5.219 1.459 0 2.985 0.262 2.985 0.262v3.301h-1.681c-1.656 0-2.173 1.034-2.173 2.095v2.516h3.698l-0.591 3.878h-3.107v9.374c6.374-1.006 11.25-6.556 11.25-13.252z"></path>
    </symbol>
    <symbol id="icon-instagram" viewBox="0 0 32 32">
        <path d="M15.998 6.161c3.206 0 3.585 0.014 4.846 0.071 1.172 0.052 1.804 0.248 2.226 0.412 0.558 0.216 0.961 0.478 1.378 0.895 0.422 0.422 0.679 0.82 0.9 1.378 0.164 0.422 0.361 1.059 0.412 2.226 0.056 1.266 0.071 1.645 0.071 4.847s-0.014 3.585-0.071 4.847c-0.052 1.172-0.248 1.804-0.412 2.227-0.216 0.558-0.478 0.961-0.895 1.377-0.422 0.422-0.82 0.679-1.378 0.9-0.422 0.164-1.060 0.361-2.226 0.412-1.266 0.056-1.645 0.071-4.847 0.071s-3.585-0.014-4.847-0.071c-1.172-0.052-1.804-0.248-2.226-0.412-0.558-0.216-0.961-0.478-1.378-0.895-0.422-0.422-0.679-0.82-0.9-1.378-0.164-0.422-0.361-1.060-0.412-2.226-0.056-1.266-0.071-1.645-0.071-4.847s0.014-3.585 0.071-4.847c0.052-1.172 0.248-1.804 0.412-2.226 0.216-0.558 0.478-0.961 0.895-1.378 0.422-0.422 0.82-0.679 1.378-0.9 0.422-0.164 1.059-0.361 2.226-0.412 1.261-0.056 1.641-0.071 4.847-0.071h0.001zM15.998 4.001c-3.258 0-3.665 0.014-4.945 0.071-1.275 0.056-2.151 0.262-2.91 0.558-0.792 0.309-1.462 0.717-2.127 1.387-0.67 0.666-1.078 1.336-1.387 2.123-0.295 0.764-0.502 1.636-0.558 2.91-0.056 1.285-0.071 1.692-0.071 4.949s0.014 3.665 0.071 4.945c0.056 1.275 0.262 2.151 0.558 2.91 0.31 0.792 0.717 1.462 1.387 2.127 0.665 0.665 1.336 1.078 2.123 1.383 0.764 0.295 1.636 0.502 2.91 0.558 1.279 0.056 1.687 0.071 4.945 0.071s3.666-0.014 4.945-0.071c1.275-0.056 2.151-0.262 2.91-0.558 0.787-0.305 1.458-0.717 2.123-1.383s1.078-1.336 1.383-2.123c0.295-0.764 0.502-1.635 0.558-2.91 0.056-1.279 0.071-1.687 0.071-4.945s-0.014-3.665-0.071-4.945c-0.056-1.275-0.262-2.151-0.558-2.91-0.295-0.797-0.703-1.467-1.373-2.133-0.665-0.665-1.336-1.078-2.123-1.383-0.764-0.295-1.635-0.502-2.91-0.558-1.284-0.061-1.692-0.075-4.949-0.075l-0.001 0.001z"></path>
        <path d="M15.997 9.836c-3.402 0-6.163 2.76-6.163 6.163s2.76 6.163 6.163 6.163c3.403 0 6.163-2.76 6.163-6.163s-2.76-6.163-6.163-6.163zM15.997 19.997c-2.208 0-3.998-1.79-3.998-3.998s1.79-3.998 3.998-3.998c2.208 0 3.998 1.79 3.998 3.998s-1.79 3.998-3.998 3.998z"></path>
        <path d="M23.842 9.592c0 0.795-0.644 1.439-1.439 1.439s-1.439-0.644-1.439-1.439 0.644-1.439 1.439-1.439c0.795 0 1.439 0.644 1.439 1.439z"></path>
    </symbol>
    <symbol id="icon-menu" width="24" height="24" viewBox="0 0 32 32">
        <path d="M4.936 24.295c-0.321 0-0.59-0.11-0.808-0.329s-0.327-0.493-0.327-0.82c0-0.322 0.109-0.591 0.327-0.807s0.488-0.323 0.808-0.323h22.127c0.321 0 0.591 0.11 0.812 0.329s0.331 0.49 0.331 0.812c0 0.328-0.11 0.599-0.331 0.814s-0.492 0.323-0.812 0.323h-22.127zM4.936 17.136c-0.321 0-0.59-0.11-0.808-0.329s-0.327-0.49-0.327-0.812c0-0.322 0.109-0.591 0.327-0.806s0.488-0.323 0.808-0.323h22.127c0.321 0 0.591 0.11 0.812 0.329s0.331 0.49 0.331 0.812c0 0.322-0.11 0.591-0.331 0.806s-0.492 0.323-0.812 0.323h-22.127zM4.936 9.984c-0.321 0-0.59-0.11-0.808-0.329s-0.327-0.493-0.327-0.82c0-0.322 0.109-0.591 0.327-0.806s0.488-0.323 0.808-0.323h22.127c0.321 0 0.591 0.11 0.812 0.329s0.331 0.49 0.331 0.812c0 0.328-0.11 0.599-0.331 0.815s-0.492 0.323-0.812 0.323h-22.127z"></path>
    </symbol>
    <symbol id="icon-star-filled" width="24" height="24" viewBox="0 0 32 32">
      <path d="M14.76 4.816c0.46-1.088 2.020-1.088 2.48 0l2.704 6.427c0.193 0.457 0.631 0.772 1.132 0.811l7.021 0.556c1.189 0.095 1.672 1.561 0.765 2.328l-5.349 4.529c-0.287 0.243-0.468 0.604-0.468 1.007 0 0.109 0.013 0.215 0.038 0.316l-0.002-0.009 1.633 6.769c0.277 1.147-0.987 2.053-2.004 1.44l-6.012-3.628c-0.199-0.122-0.441-0.194-0.699-0.194s-0.499 0.072-0.705 0.197l0.006-0.003-6.012 3.627c-1.019 0.615-2.281-0.292-2.004-1.439l1.633-6.769c0.023-0.092 0.036-0.198 0.036-0.307 0-0.403-0.181-0.764-0.466-1.005l-0.002-0.002-5.349-4.528c-0.907-0.767-0.424-2.233 0.765-2.328l7.021-0.556c0.503-0.040 0.939-0.353 1.133-0.812l2.704-6.425z"></path>
    </symbol>
    <symbol id="icon-star-outline" width="24" height="24" viewBox="0 0 32 32" fill="none" stroke="black">
      <path  stroke-linejoin="miter" stroke-linecap="butt" stroke-miterlimit="4" stroke-width="2" d="M15.375 5.076c0.108-0.243 0.347-0.409 0.625-0.409s0.517 0.166 0.624 0.404l0.002 0.004 2.704 6.424c0.292 0.692 0.947 1.16 1.693 1.219l7.021 0.556c0.346 0.019 0.62 0.305 0.62 0.654 0 0.2-0.090 0.379-0.231 0.499l-0.001 0.001-5.351 4.528c-0.573 0.484-0.827 1.249-0.649 1.98l1.636 6.768c0.133 0.549-0.483 1.032-1.013 0.712h-0.001l-6.009-3.627c-0.298-0.182-0.658-0.29-1.044-0.29s-0.746 0.108-1.053 0.295l0.009-0.005-6.011 3.627c-0.531 0.32-1.147-0.163-1.013-0.712l1.636-6.768c0.035-0.139 0.055-0.299 0.055-0.463 0-0.607-0.273-1.151-0.703-1.515l-0.003-0.002-5.349-4.529c-0.142-0.121-0.232-0.3-0.232-0.5 0-0.349 0.273-0.634 0.617-0.654l0.002-0 7.021-0.556c0.763-0.061 1.4-0.54 1.688-1.206l0.005-0.013 2.707-6.424z"></path>
    </symbol>
    <symbol id="icon-star-half" width="24" height="24" viewBox="0 0 32 32">
        <defs>
            <linearGradient id="star-half-gradient" x1="0" y1="0" x2="32" y2="0" gradientUnits="userSpaceOnUse">
            <stop offset="50%" stop-color="#02060A"/>
            <stop offset="50%" stop-color="transparent"/>
            </linearGradient>
        </defs>
        <path
        d="M15.375 5.076c0.108-0.243 0.347-0.409 0.625-0.409s0.517 0.166 0.624 0.404l0.002 0.004 2.704 6.424c0.292 0.692 0.947 1.16 1.693 1.219l7.021 0.556c0.346 0.019 0.62 0.305 0.62 0.654 0 0.2-0.090 0.379-0.231 0.499l-0.001 0.001-5.351 4.528c-0.573 0.484-0.827 1.249-0.649 1.98l1.636 6.768c0.133 0.549-0.483 1.032-1.013 0.712h-0.001l-6.009-3.627c-0.298-0.182-0.658-0.29-1.044-0.29s-0.746 0.108-1.053 0.295l0.009-0.005-6.011 3.627c-0.531 0.32-1.147-0.163-1.013-0.712l1.636-6.768c0.035-0.139 0.055-0.299 0.055-0.463 0-0.607-0.273-1.151-0.703-1.515l-0.003-0.002-5.349-4.529c-0.142-0.121-0.232-0.3-0.232-0.5 0-0.349 0.273-0.634 0.617-0.654l0.002-0 7.021-0.556c0.763-0.061 1.4-0.54 1.688-1.206l0.005-0.013 2.707-6.424z"
        fill="url(#star-half-gradient)"
        stroke="black"
        stroke-width="2"/></path>
    </symbol>
  </defs>
</svg>



